<svg width="408" height="707" viewBox="0 0 408 707" fill="none" xmlns="http://www.w3.org/2000/svg">
<path d="M81.2368 209.533L22.2059 116.72C-6.52251 71.5516 -6.08401 13.7319 23.3261 -30.996C63.3845 -91.9181 144.357 -110.415 206.895 -72.9289L280.163 -29.0113C366.573 22.7838 397.089 133.302 349.499 222.097L339.48 240.789C303.554 307.822 318.98 390.811 376.595 440.455L387.36 449.73C442.717 497.429 454.309 578.695 414.495 639.968C373.831 702.55 292.53 724.411 225.964 690.661L95.8936 624.715C7.15657 579.724 -11.0577 460.83 60.1408 391.337C109.298 343.358 118.101 267.494 81.2368 209.533Z" fill="#EAE3DA"/>
</svg>
